<?xml version="1.0" encoding="UTF-8"?><svg id="Layer_2" xmlns="http://www.w3.org/2000/svg" viewBox="0 0 296.85 96.24"><defs><style>.cls-1{fill:#ea7331;}.cls-2{fill:#ffb51b;}.cls-3{fill:#e35d30;}.cls-4{fill:#4b9a6a;}</style></defs><g id="Layer_1-2"><g><path class="cls-2" d="M60.71,17.64c1.07,0,2,.2,2.76,.61,.77,.41,1.38,.92,1.84,1.54,.46,.61,.79,1.3,1,2.07,.2,.77,.31,1.51,.31,2.23s-.1,1.46-.31,2.23c-.21,.77-.55,1.46-1.04,2.07-.49,.61-1.1,1.11-1.84,1.5-.74,.38-1.65,.58-2.72,.58H21.87c-.82,0-1.38,.14-1.69,.42-.31,.28-.46,.83-.46,1.65v11.13c0,.82,.15,1.38,.46,1.69s.87,.46,1.69,.46H61.94c1.07,0,2,.2,2.76,.61,.77,.41,1.38,.92,1.84,1.54,.46,.61,.81,1.29,1.04,2.03,.23,.74,.35,1.47,.35,2.19s-.12,1.46-.35,2.23c-.23,.77-.59,1.46-1.07,2.07-.49,.61-1.1,1.11-1.84,1.5-.74,.38-1.65,.58-2.72,.58h-18.19v14.74h21.64c1.18,0,2.17,.18,2.99,.54,.82,.36,1.48,.83,2,1.42,.51,.59,.88,1.25,1.11,2,.23,.74,.35,1.5,.35,2.26,0,1.59-.5,3.02-1.5,4.3-1,1.28-2.65,1.92-4.95,1.92H6.45c-2.3,0-3.95-.64-4.95-1.92-1-1.28-1.5-2.71-1.5-4.3,0-.77,.12-1.52,.35-2.26,.23-.74,.6-1.41,1.11-2,.51-.59,1.18-1.06,2-1.42,.82-.36,1.82-.54,2.99-.54H28.09v-14.74h-11.67c-2.3,0-4.25-.22-5.83-.65-1.59-.43-2.85-1.13-3.8-2.07-.95-.95-1.64-2.19-2.07-3.72-.44-1.54-.65-3.43-.65-5.68V29.76c0-2.2,.22-4.07,.65-5.6,.43-1.54,1.13-2.79,2.07-3.76,.95-.97,2.21-1.68,3.8-2.11,1.59-.43,3.53-.65,5.83-.65H60.71Z"/><path class="cls-4" d="M244.58,52.96c0,1.33,.26,2.21,.77,2.65,.51,.44,1.43,.65,2.76,.65h22.64c1.18,0,2.17,.18,2.99,.54,.82,.36,1.5,.84,2.03,1.46,.54,.61,.92,1.29,1.15,2.03,.23,.74,.35,1.5,.35,2.26,0,1.59-.51,3.03-1.54,4.34-1.02,1.31-2.69,1.96-4.99,1.96h-28.32c-2.41,0-4.45-.23-6.14-.69-1.69-.46-3.06-1.2-4.11-2.23-1.05-1.02-1.82-2.37-2.3-4.03-.49-1.66-.73-3.7-.73-6.1v-13.97c0-2.41,.24-4.43,.73-6.06,.49-1.64,1.25-2.97,2.3-3.99,1.05-1.02,2.42-1.75,4.11-2.19,1.69-.43,3.73-.65,6.14-.65h13.74v-11.13c0-.51-.13-1-.38-1.46-.26-.46-.82-.69-1.69-.69h-17.65c-1.18,0-2.18-.18-2.99-.54-.82-.36-1.48-.84-2-1.46-.51-.61-.9-1.3-1.15-2.07-.26-.77-.38-1.54-.38-2.3s.12-1.54,.35-2.3c.23-.77,.61-1.46,1.15-2.07s1.21-1.11,2.03-1.5c.82-.38,1.82-.58,2.99-.58h21.72c2.66,0,4.85,.21,6.56,.61,1.71,.41,3.08,1.07,4.11,2,1.02,.92,1.74,2.12,2.15,3.61,.41,1.48,.61,3.33,.61,5.53v26.86h-23.49c-1.33,0-2.25,.22-2.76,.65-.51,.44-.77,1.32-.77,2.65v8.21Z"/><path class="cls-4" d="M294.55,1.92c-1.54-1.28-3.33-1.92-5.37-1.92s-3.84,.64-5.37,1.92c-1.54,1.28-2.3,3.17-2.3,5.68v56.87c0,2.51,.77,4.4,2.3,5.68,1.53,1.28,3.33,1.92,5.37,1.92s3.84-.64,5.37-1.92c1.54-1.28,2.3-3.17,2.3-5.68V7.6c0-2.51-.77-4.4-2.3-5.68Z"/><path class="cls-3" d="M215.67,39.43c1.07,0,2.01,.19,2.8,.58,.79,.38,1.43,.88,1.92,1.5,.49,.61,.84,1.29,1.07,2.03,.23,.74,.35,1.5,.35,2.26s-.12,1.55-.35,2.34c-.23,.79-.6,1.5-1.11,2.11-.51,.61-1.15,1.13-1.92,1.54-.77,.41-1.69,.61-2.76,.61h-46.36c-2.3,0-4.21-.22-5.72-.65-1.51-.44-2.71-1.13-3.61-2.07-.9-.95-1.52-2.17-1.88-3.68-.36-1.51-.54-3.36-.54-5.56v-15.35c0-1.28,.22-2.39,.65-3.34,.43-.95,1.01-1.73,1.73-2.34,.72-.61,1.56-1.06,2.53-1.34,.97-.28,1.97-.42,2.99-.42,2.1,0,3.91,.61,5.45,1.84,1.54,1.23,2.3,3.1,2.3,5.6v12.2c0,.87,.15,1.45,.46,1.73,.31,.28,.89,.42,1.77,.42h40.22Z"/><path class="cls-3" d="M225,61.84c-.23-.77-.6-1.44-1.11-2.03-.51-.59-1.18-1.07-2-1.46-.82-.38-1.82-.58-2.99-.58h-58.95c-1.18,0-2.18,.19-2.99,.58-.82,.38-1.48,.87-2,1.46-.51,.59-.88,1.27-1.11,2.03-.23,.77-.35,1.54-.35,2.3,0,1.59,.5,3.03,1.5,4.34,1,1.3,2.65,1.96,4.95,1.96h21.64v17.96h0c.02,2.52,.8,4.45,2.35,5.8,1.57,1.36,3.4,2.04,5.47,2.04s3.97-.67,5.51-2c1.55-1.33,2.32-3.3,2.32-5.91h0v-17.89h21.64c2.3,0,3.95-.65,4.95-1.96,1-1.31,1.5-2.75,1.5-4.34,0-.77-.12-1.54-.35-2.3Z"/><path class="cls-1" d="M91.26,63.76c-2,0-3.79-.38-5.37-1.15-1.59-.77-2.93-1.77-4.03-2.99-1.1-1.23-1.95-2.65-2.53-4.26-.59-1.61-.88-3.26-.88-4.95v-1.84c0-1.69,.28-3.27,.84-4.76,.56-1.48,1.39-2.78,2.49-3.88,1.1-1.1,2.44-1.96,4.03-2.57,1.59-.61,3.4-.92,5.45-.92h13.66v-3.3c0-.66-.14-1.1-.42-1.3-.28-.2-.78-.31-1.5-.31h-18.73c-.97,0-1.8-.18-2.49-.54-.69-.36-1.25-.82-1.69-1.38-.44-.56-.76-1.18-.96-1.84-.21-.66-.31-1.33-.31-2,0-.72,.1-1.42,.31-2.11,.2-.69,.54-1.32,1-1.88,.46-.56,1.04-1.02,1.73-1.38,.69-.36,1.5-.54,2.42-.54h24.56c4.09,0,7.03,.95,8.83,2.84,1.79,1.89,2.69,4.35,2.69,7.37v17.19h-23.64c-1.59,0-2.38,.72-2.38,2.15v.69c0,1.33,.79,1.99,2.38,1.99h24.56c.92,0,1.73,.18,2.42,.54,.69,.36,1.25,.82,1.69,1.38,.43,.56,.75,1.2,.96,1.92,.2,.72,.31,1.41,.31,2.07s-.1,1.34-.31,2.03c-.2,.69-.51,1.3-.92,1.84-.41,.54-.96,.99-1.65,1.34-.69,.36-1.52,.54-2.49,.54h-30.01Z"/><path class="cls-1" d="M93.64,89.71c-2.15,0-3.93-.2-5.33-.61-1.41-.41-2.52-1.05-3.34-1.92-.82-.87-1.39-2.02-1.73-3.45-.33-1.43-.5-3.17-.5-5.22v-4.91c0-2.61,.78-4.46,2.34-5.56,1.56-1.1,3.41-1.65,5.56-1.65s3.96,.55,5.45,1.65c1.48,1.1,2.23,2.96,2.23,5.56v2.3c0,.87,.13,1.41,.38,1.61,.26,.2,.82,.31,1.69,.31h40.22c2.35,0,4.02,.6,4.99,1.8,.97,1.2,1.46,2.57,1.46,4.11s-.5,2.98-1.5,4.18c-1,1.2-2.65,1.8-4.95,1.8h-46.97Z"/><path class="cls-1" d="M152.58,41.16c-.2-.79-.54-1.51-1-2.15-.46-.64-1.07-1.16-1.84-1.57-.77-.41-1.74-.61-2.92-.61h-2.38v-11.59c0-2.46-.76-4.34-2.26-5.64-1.51-1.3-3.26-1.96-5.26-1.96s-3.81,.64-5.3,1.92c-1.48,1.28-2.23,3.17-2.23,5.68V63.81h0c0,2.45,.75,4.33,2.26,5.63,1.51,1.3,3.26,1.95,5.25,1.95s3.81-.64,5.29-1.92c1.46-1.26,2.2-3.13,2.22-5.59h.03v-13.72h2.38c1.12,0,2.08-.2,2.88-.61,.79-.41,1.42-.93,1.88-1.57,.46-.64,.79-1.35,1-2.15,.2-.79,.31-1.57,.31-2.34s-.1-1.55-.31-2.34Z"/></g></g></svg>